<?xml version="1.0" standalone="no"?>
<!DOCTYPE svg PUBLIC "-//W3C//DTD SVG 20010904//EN"
 "http://www.w3.org/TR/2001/REC-SVG-20010904/DTD/svg10.dtd">
<svg version="1.0" xmlns="http://www.w3.org/2000/svg"
 width="350.000000pt" height="350.000000pt" viewBox="0 0 350.000000 350.000000"
 preserveAspectRatio="xMidYMid meet">
<metadata>
Created by potrace 1.14, written by Peter Selinger 2001-2017
</metadata>
<g transform="translate(0.000000,350.000000) scale(0.100000,-0.100000)"
fill="#000000" stroke="none">
<path d="M1589 3496 c-2 -2 -29 -7 -59 -10 -566 -65 -1083 -431 -1344 -953
-32 -63 -104 -240 -111 -268 -1 -5 -7 -30 -14 -55 -7 -25 -15 -56 -17 -70 -3
-14 -7 -38 -11 -55 -11 -52 -13 -58 -20 -120 -10 -75 -10 -352 -1 -425 55
-426 258 -816 573 -1098 170 -152 419 -296 626 -361 206 -64 282 -75 534 -75
201 0 243 3 335 22 384 83 727 280 962 554 115 133 157 192 230 324 95 172
175 407 203 599 11 74 14 369 5 435 -5 36 -12 83 -15 104 -26 203 -163 531
-300 721 -122 170 -282 326 -455 443 -69 46 -287 162 -314 166 -6 1 -17 5 -24
10 -16 10 -229 73 -274 80 -18 4 -51 9 -73 12 -22 3 -47 8 -55 11 -16 6 -375
14 -381 9z"/>
</g>
</svg>
